<svg xmlns="http://www.w3.org/2000/svg" width="32" height="32" viewBox="0 0 32 32"><path d="M27.75 15.1a.65.65 0 0 1-.45-.19 16 16 0 0 0-22.61 0 .64.64 0 1 1-.9-.9A17.25 17.25 0 0 1 28.2 14a.63.63 0 0 1 0 .9.65.65 0 0 1-.45.2z"/><path d="M31.36 11.49a.65.65 0 0 1-.45-.19 21.11 21.11 0 0 0-29.82 0 .63.63 0 0 1-.9 0 .65.65 0 0 1 0-.91 22.4 22.4 0 0 1 31.62 0 .65.65 0 0 1 0 .91.64.64 0 0 1-.45.19zM24.14 18.72a.66.66 0 0 1-.46-.2 10.88 10.88 0 0 0-15.36 0 .65.65 0 0 1-.91 0 .63.63 0 0 1 0-.9 12.17 12.17 0 0 1 17.18 0 .63.63 0 0 1 0 .9.62.62 0 0 1-.45.2z"/><path d="M20.52 22.33a.65.65 0 0 1-.45-.19 5.73 5.73 0 0 0-8.13 0 .63.63 0 0 1-.9 0 .65.65 0 0 1 0-.91 7 7 0 0 1 9.93 0 .65.65 0 0 1 0 .91.61.61 0 0 1-.45.19zM16 28.14a1.92 1.92 0 1 1 1.92-1.92A1.92 1.92 0 0 1 16 28.14zm0-2.56a.64.64 0 0 0-.64.64.65.65 0 1 0 .64-.64zm1.28.64z"/></svg>