<svg xmlns="http://www.w3.org/2000/svg" width="32" height="32" viewBox="0 0 32 32"><path d="M16.034 0c-8.839 0-16 7.161-16 16s7.161 16 16 16 16-7.161 16-16-7.195-16-16-16zm14.458 15.28h-6.064c-.069-2.741-.514-5.619-1.268-7.914a15.8734 15.8734 0 0 0 2.878-1.85c2.604 2.501 4.283 5.653 4.454 9.764zM16.788 1.576c1.713.377 3.392 2.261 4.557 5.002-1.439.548-2.844.891-4.557.959V1.576zm3.529.582c1.679.514 3.221 1.336 4.557 2.398-.72.548-1.473 1.028-2.227 1.439-.651-1.542-1.439-2.844-2.33-3.837zm-4.899-.513v5.893c-2.056-.103-2.981-.411-4.351-.925 1.096-2.672 2.296-4.522 4.351-4.968zM9.422 5.961C8.634 5.55 7.88 5.07 7.195 4.522c1.336-1.062 2.878-1.85 4.557-2.398-.891 1.028-1.679 2.33-2.33 3.837zm5.996 3.084v6.201H9.114c.069-2.741.617-5.139 1.302-7.263 1.542.617 2.946.994 5.002 1.062zm0 7.263v6.818c-2.056.103-3.392.171-4.934.754-.685-2.124-1.268-4.831-1.336-7.572h6.27zm0 8.326v5.722c-2.056-.445-3.186-2.227-4.283-4.797 1.37-.514 2.912-.822 4.283-.925zm-3.666 5.208c-1.61-.514-3.118-1.302-4.454-2.296.685-.514 1.405-.994 2.193-1.37.617 1.473 1.37 2.707 2.261 3.666zm5.036.548v-5.756c1.713.069 3.049.377 4.488.925-1.131 2.672-2.775 4.488-4.488 4.831zm5.79-4.214c.754.377 1.508.857 2.193 1.37-1.336.994-2.809 1.782-4.454 2.296.857-.959 1.645-2.193 2.261-3.666zm-5.79-3.05v-6.818h6.133c-.069 2.741-.48 5.448-1.165 7.572-1.61-.617-3.255-.685-4.968-.754zm0-7.846V9.079c1.713-.069 3.392-.445 5.002-1.062.685 2.124 1.062 4.522 1.131 7.263h-6.133zM5.996 5.516c.891.72 1.85 1.336 2.878 1.816-.754 2.295-1.199 5.173-1.268 7.914h-6.03c.171-4.077 1.85-7.229 4.42-9.73zm-4.42 10.792h6.03c.069 3.426.548 5.893 1.336 8.188-.994.48-1.953.959-2.809 1.645-2.638-2.467-4.351-5.722-4.557-9.833zm24.36 9.97c-.891-.685-1.816-1.439-2.809-1.919.788-2.296 1.233-4.625 1.336-8.051h6.03c-.24 4.111-1.919 7.503-4.557 9.97z"/></svg>