<svg xmlns="http://www.w3.org/2000/svg" width="21" height="13" fill="none" viewBox="0 0 21 13"><path fill="#fff" fill-rule="evenodd" d="M20.3994 7.07269C20.545 6.92952 20.647 6.72907 20.647 6.5C20.647 6.27093 20.5596 6.07049 20.3994 5.92731L14.6188 0.243392C14.4732 0.10022 14.2694 7.60519e-08 14.0364 7.88301e-08C13.585 8.42127e-08 13.2065 0.35793 13.2065 0.816079C13.2065 1.04515 13.2938 1.24559 13.454 1.38877L17.8222 5.68392L0.829876 5.68392C0.378494 5.68392 -8.38513e-05 6.04185 -8.38458e-05 6.5C-8.38405e-05 6.94383 0.363934 7.31608 0.829876 7.31608L17.8222 7.31608L13.454 11.6112C13.3084 11.7544 13.2065 11.9548 13.2065 12.1839C13.2065 12.6278 13.5705 13 14.0364 13C14.2548 13 14.4732 12.9141 14.6188 12.7566L20.3994 7.07269Z" clip-rule="evenodd"/></svg>