<svg xmlns="http://www.w3.org/2000/svg" width="32" height="32" viewBox="0 0 32 32">
  <path d="M16 0c-4.4 0-4.93 0-6.53.13a10.78 10.78 0 0 0-4 .67 8.36 8.36 0 0 0-2.8 1.87A7.26 7.26 0 0 0 .8 5.47a10.78 10.78 0 0 0-.67 4C0 11.07 0 11.6 0 16s0 4.93.13 6.53a13.24 13.24 0 0 0 .8 3.87 6.09 6.09 0 0 0 1.74 2.93 7.26 7.26 0 0 0 2.8 1.87 12.85 12.85 0 0 0 3.86.8H16c4.4 0 4.93 0 6.53-.13a13.24 13.24 0 0 0 3.87-.8 6.51 6.51 0 0 0 2.8-1.87 7.37 7.37 0 0 0 1.87-2.8 13.24 13.24 0 0 0 .8-3.87C32 20.93 32 20.4 32 16s0-4.93-.13-6.53a13.24 13.24 0 0 0-.8-3.87 6.09 6.09 0 0 0-1.74-2.93A7.26 7.26 0 0 0 26.53.8a12.85 12.85 0 0 0-3.86-.8zm0 2.93c4.27 0 4.8 0 6.53.14a8.6 8.6 0 0 1 2.94.53 4.54 4.54 0 0 1 1.86 1.2 4.38 4.38 0 0 1 1.2 1.87 6.55 6.55 0 0 1 .54 2.93c.13 1.73.13 2.13.13 6.4s0 4.8-.13 6.53a14.53 14.53 0 0 1-.54 2.94 4.35 4.35 0 0 1-1.2 1.86 4.35 4.35 0 0 1-1.86 1.2 6.63 6.63 0 0 1-2.94.54c-1.73.13-2.13.13-6.53.13s-4.8 0-6.53-.13a14.53 14.53 0 0 1-2.94-.54 4.35 4.35 0 0 1-1.86-1.2 4.35 4.35 0 0 1-1.2-1.86 6.63 6.63 0 0 1-.54-2.94c0-1.73-.13-2.13-.13-6.4s0-4.8.13-6.53a6.88 6.88 0 0 1 .54-3.07 4.35 4.35 0 0 1 1.2-1.86 4.35 4.35 0 0 1 1.86-1.2 6.63 6.63 0 0 1 2.94-.54 49.59 49.59 0 0 1 6.53 0zm0 4.8A8.27 8.27 0 1 0 24.27 16 8.32 8.32 0 0 0 16 7.73zm0 13.6A5.33 5.33 0 1 1 21.33 16 5.35 5.35 0 0 1 16 21.33zM26.4 7.47a1.87 1.87 0 0 1-3.73 0 1.87 1.87 0 1 1 3.73 0z"/>
</svg>
