<svg xmlns="http://www.w3.org/2000/svg" enable-background="new 0 0 341.59 203.057" viewBox="0 0 341.59 203.057"><path fill="#fff" d="m0.063 0h341.47v202.17h-341.47z"/><path fill="#ffffbd" d="m.063,12"/><path fill="red" d="m36.323 49.445"/><path fill="#13135f" d="m.063,20v56.5h96z"/><path fill="red" d="m109.91 76.5h19.652l-129.5-76.5v12z"/><path fill="#12145b" d="m37.916 0 109.65 67.486v-67.486z"/><path fill="#13135f" d="m341.56 182v-56h-95z"/><path fill="red" d="m232.72 126h-19.652l128.5 76.125v-12.125z"/><path fill="#12145b" d="m304.68 203-109.65-67.486v67.486z"/><path fill="#13135f" d="m341.56 20.513v55.987l-95-0.068z"/><path fill="red" d="m195.06 76.5h22.298l124.2-76.5h-22.554z"/><path fill="#12145b" d="m303.75 0-108.69 66.986v-66.986z"/><path fill="#13135f" d="m0.071 182.48v-56.5h96z"/><path fill="red" d="m147.52 125.97h-22.299l-125.22 77.088h22.572z"/><path fill="#12145b" d="m37.87 202.97 109.65-67.486v67.486z"/><path fill="red" d="m156.72 0h28.874v203h-28.874z"/><path fill="red" d="m0.063 85.252h341.53v32.672h-341.53z"/></svg>