<svg id="Layer_1" xmlns="http://www.w3.org/2000/svg" xmlns:xlink="http://www.w3.org/1999/xlink" width="100" height="88.4" viewBox="0 0 1000 884">
  <style>
    .st0{clip-path:url(#SVGID_2_);}
    .st1{clip-path:url(#SVGID_4_);fill:#F7A600;}
    .st2{clip-path:url(#SVGID_4_);fill:#FFFFFF;}
    .st3{clip-path:url(#SVGID_6_);fill:#002C4D;}
    .st4{clip-path:url(#SVGID_6_);}
    .st5{clip-path:url(#SVGID_8_);fill:#F7A600;}
    .st6{clip-path:url(#SVGID_8_);fill:#FFFFFF;}
  </style>
  <g id="f24s_x5F_navy_x5F_logotype">
    <defs>
      <path id="SVGID_5_" d="M0-1.8h1000v885.6H0z"/>
    </defs>
    <clipPath id="SVGID_2_">
      <use xlink:href="#SVGID_5_" overflow="visible"/>
    </clipPath>
    <path clip-path="url(#SVGID_2_)" fill="#002C4D" d="M0-1.8h1000v885.6H0z"/>
    <g class="st0">
      <defs>
        <path id="SVGID_7_" d="M0-1.8h1000v885.6H0z"/>
      </defs>
      <clipPath id="SVGID_4_">
        <use xlink:href="#SVGID_7_" overflow="visible"/>
      </clipPath>
      <path class="st1" d="M340.6 383.1l-100.8 21.3c-81.7 17.5-164.9 57-167.2 187.2h431.9v-51.3H741v51.3h122.8v-51.3h63.4v-82h-63.4V253.2H687.1l-197 201.6v51.7H218.7c8.4-12.4 24-20.2 53.6-25.8l123.4-22.4c49-9.4 116.1-35.1 116.1-99.4 0-94.8-105.4-114.2-217.5-114.2-86.9 0-199.7 15.6-210.1 132.2H232c3.8-44 41.6-47.4 79.1-47.4 31.9 0 56 7.9 56 27.3.1 14.1-9.2 22.7-26.5 26.3M741 335.5v122.9H616.3L741 335.5zM637.9 740.9h93.2v-46.6h-93.2V670h103.4v-50H520.6l-31.8 118.9h-.6L455.9 620H244.4v113c-8.4-21.2-30.4-30.5-52.4-36.6-27.8-7.4-56.2-10.5-57.3-24.6 0-10.8 13.8-13.1 22.1-13.1 5.8 0 12.9 1.2 17.9 4.6 4.9 3.6 8 8.5 7.2 16h57.6c-1.9-47.8-39.7-63.8-82.5-63.8-40.8 0-79.6 19.4-79.6 64.6 0 39.5 35.6 48 66.8 56.4 34 9.9 42.7 12.6 42.7 22.7 0 14.9-15 18-25.1 18-11.4 0-24.7-2.7-29.1-14.5-1.4-3.5-2.3-7.8-2.3-12.9h-61c.8 62.8 64.6 70.6 87 70.6 36.8 0 76.2-11.6 87.9-45.3v40.8H411v-50.3H305.5v-24.5h93v-46.6h-93V670h102.6v-5l45.4 150.7h67.9L577 639.2v176.6h164.3v-50.3H637.9v-24.6zM871 620v105h-.5l-57.7-105h-62.2v195.8h57.6v-107h.6l60.6 106.9h59.1V620H871z"/>
      <path class="st2" d="M256.9 107h41.7v112.9h47.3V107h43.2V67.8H256.9V107zM74.5 219.8h47.4v-58h61.5v-35.9h-61.5V107h71.4V67.8H74.5v152zm812.8-92.3c-22.1-6.3-43.6-8.6-44.6-19.4 0-8.5 10.7-10.6 17-10.6 4.9 0 10 1.4 14.2 4 3.8 2.6 6.2 6.6 5.6 12H924c-1.2-36.7-30.8-49.6-63.9-49.6-29.4 0-57.6 13.4-61.5 43.2-4.5-31.8-32.4-43.2-63.7-43.2-31.6 0-61.9 15.5-61.9 50.3 0 30.9 27.9 37.6 52.3 44.1 26.2 7.8 32.9 9.6 32.9 17.9 0 11.1-12 13.5-19.5 13.5-8.6 0-19.3-2.1-22.8-10.9-1-2.6-1.8-6.1-1.8-10h-47.3c.1 4.4.5 8.4 1.3 12.1h-76.7v-19.1H664v-35.9h-72.6V107h77.9V67.8H544.1v152h129.5v-24.5c14.3 24.4 47.3 28.4 60.9 28.4 25.6 0 52.7-7.3 64.6-27.8 14.4 23.8 46.9 27.8 60.3 27.8 34.4 0 71.1-12.9 71.1-52.7 0-27.7-21.4-37.8-43.2-43.5m-23.5 62.2c-8.9 0-19.4-2.1-22.9-10.9-1.2-2.6-1.6-6.1-1.6-10h-34.2c-1.1-26-21.9-35.7-42.9-41.3-21.6-6.3-43.8-8.6-44.5-19.4 0-8.5 10.7-10.6 16.7-10.6 5 0 10.3 1.4 14.1 4 3.8 2.6 6.7 6.6 5.8 12H798v.7c0 30.9 27.5 37.6 52.1 44.1 26.4 7.8 32.8 9.6 32.8 17.9.1 11-11.6 13.5-19.1 13.5m-372.5-40.6h-.6L446 67.9h-48.4v152h44.6v-83.2h.5l47.1 83.2h46v-152h-44.5v81.2zM201.7 67.8h47.2v152h-47.2z"/>
    </g>
  </g>
</svg>
